<!-- Place this file in your asset folder as all-icons.svg -->

<svg xmlns="http://www.w3.org/2000/svg" style="display:none;">
  <!-- Logo Icon -->
  <symbol id="logo-ruku" viewBox="0 0 42 42">
    <circle cx="21" cy="21" r="21" fill="#c2185b"/>
    <text x="21" y="24" text-anchor="middle" fill="#fff" font-size="16" font-family="Montserrat" font-weight="bold" dy=".3em">R</text>
  </symbol>

  <!-- Facebook Icon -->
  <symbol id="icon-facebook" viewBox="0 0 32 32">
    <rect width="32" height="32" rx="16" fill="#3b5998"/>
    <path d="M21 16h-3v7h-3v-7h-2v-3h2v-2c0-1.657 1.343-3 3-3h3v3h-3v2h3v3z" fill="#fff"/>
  </symbol>

  <!-- Instagram Icon -->
  <symbol id="icon-instagram" viewBox="0 0 32 32">
    <rect width="32" height="32" rx="16" fill="#e1306c"/>
    <circle cx="16" cy="16" r="7" fill="#fff"/>
    <circle cx="16" cy="16" r="5" fill="#e1306c"/>
    <circle cx="23" cy="11" r="2" fill="#fff"/>
  </symbol>

  <!-- Twitter Icon -->
  <symbol id="icon-twitter" viewBox="0 0 32 32">
    <rect width="32" height="32" rx="16" fill="#1da1f2"/>
    <path d="M24 12.658a4.323 4.323 0 0 1-1.246.342 2.16 2.16 0 0 0 .949-1.191 4.317 4.317 0 0 1-1.369.523 2.159 2.159 0 0 0-3.677 1.969A6.13 6.13 0 0 1 10.3 11.82a2.158 2.158 0 0 0 .668 2.885 2.136 2.136 0 0 1-.976-.27v.027a2.158 2.158 0 0 0 1.732 2.117 2.174 2.174 0 0 1-.568.076c-.139 0-.274-.013-.406-.039a2.16 2.16 0 0 0 2.018 1.5A4.334 4.334 0 0 1 8 20.227a6.123 6.123 0 0 0 3.32.973c3.983 0 6.164-3.3 6.164-6.162 0-.094-.002-.187-.006-.278A4.376 4.376 0 0 0 24 12.658z" fill="#fff"/>
  </symbol>

  <!-- WhatsApp Icon -->
  <symbol id="icon-whatsapp" viewBox="0 0 32 32">
    <rect width="32" height="32" rx="16" fill="#25d366"/>
    <path d="M16 9.5a6.5 6.5 0 1 1-3.93 11.78l-2.03.55.56-2.03A6.5 6.5 0 0 1 16 9.5zm0-2a8.5 8.5 0 1 0 4.95 15.46L23 26l-2.05-.55A8.5 8.5 0 1 0 16 7.5zm3.09 10.81c-.26-.13-1.52-.75-1.75-.84-.23-.09-.4-.13-.57.13-.17.26-.65.84-.8 1.01-.15.17-.3.19-.56.06-.26-.13-1.11-.41-2.12-1.3-.78-.7-1.31-1.57-1.47-1.83-.15-.26-.02-.4.11-.53.12-.12.26-.31.4-.46.13-.15.17-.26.26-.43.09-.17.04-.32-.02-.45-.06-.13-.57-1.36-.78-1.88-.21-.53-.43-.46-.57-.47-.14-.01-.31-.01-.47-.01-.16 0-.42.06-.65.31-.23.26-.88.86-.88 2.1s.9 2.42 1.03 2.59c.13.17 1.74 2.67 4.24 3.62.6.21 1.07.33 1.44.42.61.15 1.16.13 1.59.08.49-.06 1.52-.62 1.73-1.22.21-.6.21-1.13.15-1.24-.06-.11-.23-.17-.49-.29z" fill="#fff"/>
  </symbol>

  <!-- Support Icon -->
  <symbol id="icon-support" viewBox="0 0 38 38">
    <circle cx="19" cy="19" r="19" fill="#f8bbd0"/>
    <path d="M19 10c-3.87 0-7 3.13-7 7v4.5c0 .83.67 1.5 1.5 1.5h11c.83 0 1.5-.67 1.5-1.5V17c0-3.87-3.13-7-7-7zm0 15.5c1.1 0 2-.9 2-2h-4c0 1.1.9 2 2 2z" fill="#c2185b"/>
  </symbol>

  <!-- FAQ Icon -->
  <symbol id="icon-faq" viewBox="0 0 38 38">
    <circle cx="19" cy="19" r="19" fill="#f8bbd0"/>
    <path d="M19 12a5 5 0 0 1 4.9 4h-2.4a2.5 2.5 0 1 0-5 0c0 1.34 1.09 2.43 2.43 2.5.13 0 .23.1.23.23v2.77h2v-2.77a2.5 2.5 0 0 0-2-2.46V12zm0 11a1.5 1.5 0 1 1 0-3 1.5 1.5 0 0 1 0 3z" fill="#c2185b"/>
  </symbol>

  <!-- About Icon -->
  <symbol id="icon-about" viewBox="0 0 38 38">
    <circle cx="19" cy="19" r="19" fill="#f8bbd0"/>
    <path d="M19 13a3 3 0 1 1 0 6 3 3 0 0 1 0-6zm0 7c2.67 0 8 1.34 8 4v2H11v-2c0-2.66 5.33-4 8-4z" fill="#c2185b"/>
  </symbol>

  <!-- Contact Icon -->
  <symbol id="icon-contact" viewBox="0 0 38 38">
    <circle cx="19" cy="19" r="19" fill="#f8bbd0"/>
    <path d="M27 13v2l-8 5-8-5v-2l8 5 8-5zm0 2v7c0 1.1-.9 2-2 2H13c-1.1 0-2-.9-2-2v-7l8 5 8-5z" fill="#c2185b"/>
  </symbol>
</svg>